<svg id="filled_outline" height="512" viewBox="0 0 64 64" width="512" xmlns="http://www.w3.org/2000/svg" data-name="filled outline"><path d="m5 48v-29a16 16 0 0 1 16-16 16 16 0 0 1 16 16v29z" fill="#806b53"/><path d="m17 37h8v8h-8z" fill="#f2cca0"/><path d="m33 18v9a12 12 0 0 1 -12 12 12 12 0 0 1 -12-12v-9a2 2 0 0 1 2-2h1a3 3 0 0 0 3-3 3 3 0 0 0 3 3h13a2 2 0 0 1 2 2z" fill="#ffd7a8"/><path d="m21 62h-18v-10.64639a4 4 0 0 1 2.05743-3.49661l6.94257-3.857 9 1z" fill="#bf9f78"/><path d="m21 45 9-1 6.94257 3.857a4 4 0 0 1 2.05743 3.49661v10.64639h-18z" fill="#b39570"/><circle cx="26" cy="23" fill="#a8d8ff" r="3"/><circle cx="16" cy="23" fill="#a8d8ff" r="3"/><path d="m16.36424 41.90949 4.63576 3.09051-2.36844 3.15792a1 1 0 0 1 -1.44019.16822l-5.19137-4.32614 1.84062-1.84062a2 2 0 0 1 2.52362-.24989z" fill="#eee"/><path d="m25.63576 41.90949-4.63576 3.09051 2.36844 3.15792a1 1 0 0 0 1.44019.16822l5.19137-4.32614-1.84062-1.84062a2 2 0 0 0 -2.52362-.24989z" fill="#eee"/><path d="m51 55h8a2 2 0 0 0 2-2v-26a2 2 0 0 0 -2-2h-8z" fill="#f2dba1"/><path d="m51.44721 60.3396 2.10558-1.05278a1 1 0 0 1 .89442 0l2.10558 1.05278a1 1 0 0 0 1.44721-.89442v-4.44518h-8v4.44518a1 1 0 0 0 1.44721.89442z" fill="#588fb3"/><rect fill="#f38262" height="30" rx="2" width="19" x="37" y="25"/><rect fill="#ffdd6d" height="6" rx="1" width="6" x="43" y="29"/><path d="m20 27h2v4h-2z"/><path d="m25.12354 33.85645-1.03223-1.7129a6.103 6.103 0 0 1 -6.18262 0l-1.03223 1.7129a8.00633 8.00633 0 0 0 8.24708 0z"/><path d="m4 51.35352a3 3 0 0 1 1.54346-2.62207l6.34289-3.5243 4.66541 3.88758a2.01107 2.01107 0 0 0 1.28271.46289 1.82549 1.82549 0 0 0 .23047-.01367 2.0045 2.0045 0 0 0 1.36621-.78614l.56885-.75848v14.00067h2v-14.00012l.56836.75793a2.00659 2.00659 0 0 0 1.3667.78614 1.82549 1.82549 0 0 0 .23047.01367 2.01239 2.01239 0 0 0 1.2832-.46289l4.665-3.88758 2.40043 1.33385.97168-1.74805-2.87805-1.59924-1.74158-1.74158a3.00672 3.00672 0 0 0 -2.86621-.78093v-1.67413a13.018 13.018 0 0 0 8-11.99707v-9a3.00328 3.00328 0 0 0 -3-3h-13a2.00229 2.00229 0 0 1 -2-2v-2h-2v2a2.00229 2.00229 0 0 1 -2 2h-1a3.00328 3.00328 0 0 0 -3 3v9a13.018 13.018 0 0 0 8 11.99707v1.67407a3.00707 3.00707 0 0 0 -2.86621.781l-1.74164 1.74164-5.39215 2.99628v-27.19006a15 15 0 0 1 30 0v3h2v-3a17 17 0 0 0 -34 0v28.355a5.00206 5.00206 0 0 0 -2 3.99848v10.64652h2zm17.00006-7.55561-3.00006-2.00006v-2.16125a12.56475 12.56475 0 0 0 6 0v2.1615zm5.18988-1.0567a1.00422 1.00422 0 0 1 1.26221.125l1.0664 1.06641-4.35009 3.626-1.73438-2.3125zm-16.18994-24.74121a1.001 1.001 0 0 1 1-1h1a3.99047 3.99047 0 0 0 3-1.35742 3.99047 3.99047 0 0 0 3 1.35742h13a1.001 1.001 0 0 1 1 1v4h-2.142a3.98073 3.98073 0 0 0 -7.716 0h-2.284a3.98073 3.98073 0 0 0 -7.716 0h-2.142zm18 5a2 2 0 1 1 -2-2 2.00229 2.00229 0 0 1 2 2zm-10 0a2 2 0 1 1 -2-2 2.00229 2.00229 0 0 1 2 2zm-8 4v-3h2.142a3.98073 3.98073 0 0 0 7.716 0h2.284a3.98073 3.98073 0 0 0 7.716 0h2.142v3a11 11 0 0 1 -22 0zm4.54785 15.86621a1.0044 1.0044 0 0 1 1.26221-.125l3.75586 2.50488-1.73438 2.31153-4.35009-3.625z"/><path d="m7 53h2v9h-2z"/><path d="m38 58h2v4h-2z"/><path d="m33 56h2v6h-2z"/><path d="m59 24h-20a3.00328 3.00328 0 0 0 -3 3v26a3.00328 3.00328 0 0 0 3 3h10v3.44531a2 2 0 0 0 2.894 1.78907l2.106-1.05274 2.106 1.05274a2 2 0 0 0 2.894-1.78907v-3.44531a3.00328 3.00328 0 0 0 3-3v-26a3.00328 3.00328 0 0 0 -3-3zm-20 30a1.001 1.001 0 0 1 -1-1v-26a1.001 1.001 0 0 1 1-1h15a1.001 1.001 0 0 1 1 1v26a1.001 1.001 0 0 1 -1 1zm18 5.44531-2.106-1.05273a2.0095 2.0095 0 0 0 -1.78857 0l-2.10543 1.05273v-3.44531h6zm3-6.44531a1.001 1.001 0 0 1 -1 1h-2.18427a2.96457 2.96457 0 0 0 .18427-1v-26a2.96457 2.96457 0 0 0 -.18427-1h2.18427a1.001 1.001 0 0 1 1 1z"/><path d="m44 36h4a2.00229 2.00229 0 0 0 2-2v-4a2.00229 2.00229 0 0 0 -2-2h-4a2.00229 2.00229 0 0 0 -2 2v4a2.00229 2.00229 0 0 0 2 2zm0-6h4l.00146 4h-4.00146z"/><path d="m40 38h2v2h-2z"/><path d="m44 38h8v2h-8z"/><path d="m42 42h2v2h-2z"/><path d="m46 42h6v2h-6z"/><path d="m42 46h2v2h-2z"/><path d="m46 46h6v2h-6z"/></svg>